<mxfile host="app.diagrams.net" agent="Mozilla/5.0 (Windows NT 10.0; Win64; x64) AppleWebKit/537.36 (KHTML, like Gecko) Chrome/132.0.0.0 Safari/537.36" version="26.0.6">
  <diagram name="Pagina-1" id="OU2r5AgIUYYen79N6NXl">
    <mxGraphModel dx="1430" dy="761" grid="0" gridSize="10" guides="1" tooltips="1" connect="1" arrows="1" fold="1" page="1" pageScale="1" pageWidth="827" pageHeight="1169" math="0" shadow="0">
      <root>
        <mxCell id="0" />
        <mxCell id="1" parent="0" />
        <mxCell id="NjlqZTdc2X5JnwGrO5l0-7" style="edgeStyle=orthogonalEdgeStyle;rounded=0;orthogonalLoop=1;jettySize=auto;html=1;entryX=0;entryY=0.5;entryDx=0;entryDy=0;" edge="1" parent="1" source="NjlqZTdc2X5JnwGrO5l0-1" target="NjlqZTdc2X5JnwGrO5l0-3">
          <mxGeometry relative="1" as="geometry" />
        </mxCell>
        <mxCell id="NjlqZTdc2X5JnwGrO5l0-8" value="INVOLVES" style="edgeLabel;html=1;align=center;verticalAlign=middle;resizable=0;points=[];" vertex="1" connectable="0" parent="NjlqZTdc2X5JnwGrO5l0-7">
          <mxGeometry x="-0.1243" y="-1" relative="1" as="geometry">
            <mxPoint as="offset" />
          </mxGeometry>
        </mxCell>
        <mxCell id="NjlqZTdc2X5JnwGrO5l0-14" style="edgeStyle=orthogonalEdgeStyle;rounded=0;orthogonalLoop=1;jettySize=auto;html=1;entryX=0;entryY=0.5;entryDx=0;entryDy=0;" edge="1" parent="1" source="NjlqZTdc2X5JnwGrO5l0-1" target="NjlqZTdc2X5JnwGrO5l0-9">
          <mxGeometry relative="1" as="geometry">
            <Array as="points">
              <mxPoint x="198" y="386" />
            </Array>
          </mxGeometry>
        </mxCell>
        <mxCell id="NjlqZTdc2X5JnwGrO5l0-15" value="OCCURRED_IN" style="edgeLabel;html=1;align=center;verticalAlign=middle;resizable=0;points=[];" vertex="1" connectable="0" parent="NjlqZTdc2X5JnwGrO5l0-14">
          <mxGeometry x="0.1532" relative="1" as="geometry">
            <mxPoint as="offset" />
          </mxGeometry>
        </mxCell>
        <mxCell id="NjlqZTdc2X5JnwGrO5l0-16" style="edgeStyle=orthogonalEdgeStyle;rounded=0;orthogonalLoop=1;jettySize=auto;html=1;entryX=0;entryY=0.5;entryDx=0;entryDy=0;" edge="1" parent="1" source="NjlqZTdc2X5JnwGrO5l0-1" target="NjlqZTdc2X5JnwGrO5l0-10">
          <mxGeometry relative="1" as="geometry">
            <Array as="points">
              <mxPoint x="198" y="494" />
            </Array>
          </mxGeometry>
        </mxCell>
        <mxCell id="NjlqZTdc2X5JnwGrO5l0-17" value="OCCURRED_AT" style="edgeLabel;html=1;align=center;verticalAlign=middle;resizable=0;points=[];" vertex="1" connectable="0" parent="NjlqZTdc2X5JnwGrO5l0-16">
          <mxGeometry x="0.2836" y="-1" relative="1" as="geometry">
            <mxPoint as="offset" />
          </mxGeometry>
        </mxCell>
        <mxCell id="NjlqZTdc2X5JnwGrO5l0-20" style="edgeStyle=orthogonalEdgeStyle;rounded=0;orthogonalLoop=1;jettySize=auto;html=1;entryX=0.5;entryY=0;entryDx=0;entryDy=0;" edge="1" parent="1" source="NjlqZTdc2X5JnwGrO5l0-1" target="NjlqZTdc2X5JnwGrO5l0-19">
          <mxGeometry relative="1" as="geometry">
            <Array as="points">
              <mxPoint x="86" y="267" />
            </Array>
          </mxGeometry>
        </mxCell>
        <mxCell id="NjlqZTdc2X5JnwGrO5l0-21" value="USED" style="edgeLabel;html=1;align=center;verticalAlign=middle;resizable=0;points=[];" vertex="1" connectable="0" parent="NjlqZTdc2X5JnwGrO5l0-20">
          <mxGeometry x="-0.1348" y="-1" relative="1" as="geometry">
            <mxPoint as="offset" />
          </mxGeometry>
        </mxCell>
        <mxCell id="NjlqZTdc2X5JnwGrO5l0-1" value="CrimeType" style="ellipse;whiteSpace=wrap;html=1;" vertex="1" parent="1">
          <mxGeometry x="135" y="227" width="120" height="80" as="geometry" />
        </mxCell>
        <mxCell id="NjlqZTdc2X5JnwGrO5l0-2" value="Id : Long&lt;div&gt;SubType: String&lt;/div&gt;" style="text;html=1;align=left;verticalAlign=middle;whiteSpace=wrap;rounded=0;" vertex="1" parent="1">
          <mxGeometry x="137" y="193" width="101" height="30" as="geometry" />
        </mxCell>
        <mxCell id="NjlqZTdc2X5JnwGrO5l0-3" value="" style="ellipse;whiteSpace=wrap;html=1;" vertex="1" parent="1">
          <mxGeometry x="483" y="227" width="120" height="80" as="geometry" />
        </mxCell>
        <mxCell id="NjlqZTdc2X5JnwGrO5l0-4" value="TargetVictim" style="rounded=1;whiteSpace=wrap;html=1;" vertex="1" parent="1">
          <mxGeometry x="509" y="244.5" width="68" height="16" as="geometry" />
        </mxCell>
        <mxCell id="NjlqZTdc2X5JnwGrO5l0-5" value="Ethnicity" style="rounded=1;whiteSpace=wrap;html=1;" vertex="1" parent="1">
          <mxGeometry x="509" y="273.5" width="68" height="16" as="geometry" />
        </mxCell>
        <mxCell id="NjlqZTdc2X5JnwGrO5l0-6" value="Id : Long&lt;div&gt;Age: Int&lt;/div&gt;&lt;div&gt;Gender: String&lt;/div&gt;" style="text;html=1;align=left;verticalAlign=middle;whiteSpace=wrap;rounded=0;" vertex="1" parent="1">
          <mxGeometry x="492.5" y="189" width="101" height="30" as="geometry" />
        </mxCell>
        <mxCell id="NjlqZTdc2X5JnwGrO5l0-9" value="DistrictName" style="ellipse;whiteSpace=wrap;html=1;" vertex="1" parent="1">
          <mxGeometry x="363" y="346" width="120" height="80" as="geometry" />
        </mxCell>
        <mxCell id="NjlqZTdc2X5JnwGrO5l0-11" style="edgeStyle=orthogonalEdgeStyle;rounded=0;orthogonalLoop=1;jettySize=auto;html=1;entryX=0.5;entryY=1;entryDx=0;entryDy=0;" edge="1" parent="1" source="NjlqZTdc2X5JnwGrO5l0-10" target="NjlqZTdc2X5JnwGrO5l0-9">
          <mxGeometry relative="1" as="geometry" />
        </mxCell>
        <mxCell id="NjlqZTdc2X5JnwGrO5l0-12" value="IN" style="edgeLabel;html=1;align=center;verticalAlign=middle;resizable=0;points=[];" vertex="1" connectable="0" parent="NjlqZTdc2X5JnwGrO5l0-11">
          <mxGeometry x="-0.0131" y="-1" relative="1" as="geometry">
            <mxPoint as="offset" />
          </mxGeometry>
        </mxCell>
        <mxCell id="NjlqZTdc2X5JnwGrO5l0-10" value="Street" style="ellipse;whiteSpace=wrap;html=1;" vertex="1" parent="1">
          <mxGeometry x="384.5" y="468" width="77" height="52" as="geometry" />
        </mxCell>
        <mxCell id="NjlqZTdc2X5JnwGrO5l0-18" value="DateTime: DateTime" style="text;html=1;align=left;verticalAlign=middle;whiteSpace=wrap;rounded=0;" vertex="1" parent="1">
          <mxGeometry x="220" y="346" width="124" height="30" as="geometry" />
        </mxCell>
        <mxCell id="NjlqZTdc2X5JnwGrO5l0-19" value="WeaponType" style="ellipse;whiteSpace=wrap;html=1;" vertex="1" parent="1">
          <mxGeometry x="26" y="418" width="120" height="80" as="geometry" />
        </mxCell>
        <mxCell id="NjlqZTdc2X5JnwGrO5l0-22" value="Name: String" style="text;html=1;align=left;verticalAlign=middle;whiteSpace=wrap;rounded=0;" vertex="1" parent="1">
          <mxGeometry x="36" y="498" width="101" height="30" as="geometry" />
        </mxCell>
      </root>
    </mxGraphModel>
  </diagram>
</mxfile>
